<svg xmlns="http://www.w3.org/2000/svg" viewBox="0 0 256 288" version="1.1">
  <g id="Page-1" stroke="none" stroke-width="1" fill="none" fill-rule="evenodd">
    <g id="Logo" fill-rule="nonzero">
      <polygon id="Path" fill="#8CC84B" points="128 0 256 72 256 216 128 288 0 216 0 72"></polygon>
      <polygon id="Path" fill="#494949" points="71.595 129.906 71.595 168.507 113.057 187.612 113.057 227.104 71.595 206.997 30.133 227.104 30.133 187.612 71.595 168.507 71.595 129.906"></polygon>
      <path d="M99.731,196.249 L99.731,144.052 L79.961,154.204 L79.961,206.001 L99.731,196.249 Z M128.266,98.965 L148.034,109.121 L148.034,160.914 L168.799,150.762 L168.799,98.965 L128.266,79.858 L128.266,98.965 Z M157.319,179.055 L138.984,169.485 L138.984,221.282 L157.319,230.849 L157.319,179.055 Z M128.266,250.788 L109.932,240.623 L109.932,189.048 L90.167,199.199 L90.167,251.005 L128.266,270.122 L128.266,250.788 Z" id="Path" fill="#FFF"></path>
    </g>
  </g>
</svg>