<svg xmlns="http://www.w3.org/2000/svg" viewBox="0 0 256 244" fill="none">
  <g fill="#764ABC">
    <path d="M212.636 130.487c-10.252-7.912-23.56-10.883-37.365-8.264-1.143.253-2.37.532-3.648.835 3.72-7.26 6.414-15.294 7.648-23.765 4.995-32.353-4.845-61.202-29.947-83.259-29.198-25.864-61.445-34.175-98.497-25.37-23.295 5.634-41.913 19.335-54.468 40.689-12.143 20.64-16.538 43.187-12.702 66.6 4.168 24.167 16.146 45.063 35.252 61.7 9.765 8.533 20.74 15.259 32.785 20.193-6.312 11.357-13.253 22.152-18.95 33.387-9.71 18.614-13.876 37.91-10.67 57.882 2.616 15.856 9.8 30.048 21.35 42.098 17.777 18.104 39.603 25.55 63.917 21.657 23.293-3.778 41.174-15.75 53.002-34.897 10.794-17.83 14.723-37.234 11.528-57.72-.615-4.034-1.432-8.046-2.424-12.058 9.908 1.112 19.415-.103 28.654-3.73 22.148-8.702 34.693-25.618 37.978-49.133 2.818-19.066-.79-35.547-10.933-46.804zM108.9 214.225c1.46-2.42 2.97-4.823 4.424-7.256 10.474 4.798 21.502 7.347 33.135 7.347h.025c7.93 0 15.827-1.2 23.547-3.57 3.77 12.877 4.46 25.7 2.078 38.392-2.763 14.897-9.282 28.018-19.264 39.216-18.06 20.016-47.502 27.58-69.8 10.53-16.072-12.673-23.92-29.227-22.344-50.09 1.025-14.795 5.92-28.738 14.68-42.036 9.71-15.093 18.408-30.593 27.52-46.536l.025.025c-.116-.016-.116-.016-.2-.01zm12.63-88.226c-14.23-5.658-27.33-12.47-39.362-20.62-17.096-11.58-28.103-27.404-32.582-47.073-3.897-17.83-1.43-35.257 7.182-51.148 17.347-31.054 52.424-46.53 88.196-38.463 20.865 4.56 37.177 16.07 48.08 34.464 10.96 18.473 13.968 38.506 9.445 59.693-2.59 12.42-7.522 24.07-14.56 34.91-24.04-3.84-46.822-1.558-68.14 7.514zM221.827 216.67c-7.648 8.495-17.335 13.557-28.672 15.564-5.556-19.97-15.98-36.573-31.26-50.342-10.092-9.257-21.424-16.84-33.89-22.854-13.113-6.363-26.63-10.06-40.734-11.04-3.757-14.77-.228-28.9 10.065-40.685 10.805-12.5 25.034-18.905 42.027-18.905 22.674 0 41.283 8.09 55.78 24.084 13.273 14.513 19.687 32.224 19.544 52.724-.1 12.423 2.492 24.15 8.25 35.294 6.084 11.765 12.2 23.548 19.89 34.16 3.276 4.523 6.05 9.35 8.667 14.287z"/>
  </g>
</svg>