<svg xmlns="http://www.w3.org/2000/svg" viewBox="0 0 256 256">
  <g fill="#E95420">
    <circle cx="128" cy="128" r="128"/>
  </g>
  <g fill="#FFF">
    <path d="M125.045 98.148c9.054-5.228 20.584-2.116 25.812 6.937 5.228 9.054 2.116 20.583-6.937 25.812-9.054 5.228-20.584 2.116-25.812-6.937-5.228-9.054-2.116-20.584 6.937-25.812zm-56.78 6.115c2.266 0 4.108 1.84 4.108 4.108s-1.842 4.108-4.108 4.108c-2.268 0-4.108-1.84-4.108-4.108s1.84-4.108 4.108-4.108zm82.5 47.214c-9.054 5.228-20.584 2.116-25.812-6.937-5.228-9.054-2.116-20.584 6.937-25.812 9.054-5.228 20.584-2.116 25.812 6.937 5.228 9.054 2.116 20.584-6.937 25.812zm41.84-3.118c2.266 0 4.108 1.84 4.108 4.108s-1.842 4.108-4.108 4.108c-2.268 0-4.108-1.84-4.108-4.108s1.84-4.108 4.108-4.108zm-74.3 31.944c-9.054 5.228-20.584 2.116-25.812-6.937-5.228-9.054-2.116-20.584 6.937-25.812 9.054-5.228 20.584-2.116 25.812 6.937 5.228 9.054 2.116 20.584-6.937 25.812zm-27.386 9.488c-2.266 0-4.108-1.84-4.108-4.108 0-2.268 1.84-4.108 4.108-4.108 2.268 0 4.108 1.84 4.108 4.108 0 2.268-1.84 4.108-4.108 4.108z"/>
  </g>
</svg>
